<?xml version="1.0" standalone="no"?>
<!DOCTYPE svg PUBLIC "-//W3C//DTD SVG 20010904//EN"
 "http://www.w3.org/TR/2001/REC-SVG-20010904/DTD/svg10.dtd">
<svg version="1.0" xmlns="http://www.w3.org/2000/svg"
 width="500.000000pt" height="485.000000pt" viewBox="0 0 500.000000 485.000000"
 preserveAspectRatio="xMidYMid meet">

<g transform="translate(0.000000,485.000000) scale(0.100000,-0.100000)"
fill="#000000" stroke="none">
<path d="M2367 4549 c-9 -6 -15 -14 -12 -20 11 -17 -6 -30 -21 -15 -12 13 -18
13 -44 0 -32 -16 -40 -34 -16 -34 8 0 27 -12 43 -26 15 -14 29 -21 31 -15 2 6
8 8 13 5 6 -3 16 0 24 6 10 8 19 9 28 3 6 -5 19 -9 27 -9 20 1 80 29 80 38 0
9 -55 48 -68 48 -5 0 -15 7 -22 15 -14 17 -37 19 -63 4z"/>
<path d="M2195 4433 c-22 -15 -42 -29 -45 -33 -3 -4 -13 -9 -22 -13 -10 -3
-18 -13 -18 -22 0 -18 12 -19 28 -3 7 7 27 12 45 13 21 0 31 4 29 13 -1 8 1
11 5 9 5 -2 15 -2 24 2 13 5 14 11 4 33 l-11 28 -39 -27z"/>
<path d="M2260 4446 c0 -9 7 -16 16 -16 9 0 14 5 12 12 -6 18 -28 21 -28 4z"/>
<path d="M2678 4453 c7 -3 16 -2 19 1 4 3 -2 6 -13 5 -11 0 -14 -3 -6 -6z"/>
<path d="M2469 4433 c-13 -15 -11 -16 26 -10 22 4 47 7 55 8 22 1 -20 17 -46
18 -12 1 -28 -6 -35 -16z"/>
<path d="M2595 4440 c-7 -12 22 -12 50 0 17 7 15 9 -12 9 -17 1 -35 -3 -38 -9z"/>
<path d="M2950 4386 c-14 -13 -89 -41 -177 -65 -72 -20 -47 -66 52 -97 52 -16
91 -18 290 -16 127 1 247 4 268 8 50 8 35 24 -25 28 -55 3 -112 34 -116 64 -2
12 -19 34 -37 48 -37 28 -115 45 -115 25 0 -16 -60 -13 -90 4 -31 18 -33 18
-50 1z m262 -121 c20 -4 39 -14 42 -22 3 -7 2 -11 -3 -8 -5 3 -35 7 -66 10
-61 5 -78 11 -70 25 5 8 38 7 97 -5z"/>
<path d="M2234 4368 c-5 -8 0 -9 14 -6 12 4 22 2 22 -3 0 -4 7 -6 16 -2 13 5
13 7 2 14 -19 12 -46 11 -54 -3z"/>
<path d="M2136 4339 c-12 -10 -18 -21 -13 -25 10 -10 100 19 95 31 -5 16 -59
12 -82 -6z"/>
<path d="M3290 4304 c-14 -8 -17 -13 -7 -10 10 3 25 6 33 6 8 0 14 5 14 10 0
14 -10 12 -40 -6z"/>
<path d="M1872 4275 c0 -28 3 -35 17 -31 67 18 65 15 26 42 -20 13 -37 24 -39
24 -2 0 -4 -16 -4 -35z"/>
<path d="M3340 4053 c0 -10 5 -25 10 -33 7 -11 10 -7 10 18 0 17 -4 32 -10 32
-5 0 -10 -8 -10 -17z"/>
<path d="M1934 4015 c-3 -8 -4 -18 -1 -22 4 -8 -28 -44 -38 -42 -3 0 -11 -2
-18 -4 -9 -4 -9 -6 1 -6 7 -1 11 -5 7 -11 -3 -5 -13 -6 -22 -3 -12 5 -15 2
-10 -10 6 -15 3 -16 -13 -7 -17 9 -27 5 -60 -21 -47 -38 -57 -62 -38 -91 13
-19 26 -22 107 -24 52 -2 89 1 86 6 -3 5 -1 11 5 15 5 3 10 0 10 -8 0 -8 7
-17 15 -21 8 -3 14 -2 12 2 -1 4 4 14 11 22 7 8 22 28 33 43 12 15 42 38 67
51 46 24 112 76 112 89 0 4 -10 7 -22 6 -13 0 -18 -3 -11 -5 7 -3 9 -12 6 -19
-4 -12 -7 -12 -21 1 -9 10 -26 14 -44 12 -15 -3 -28 -1 -28 4 0 4 5 8 12 8 9
0 9 3 0 12 -8 8 -15 8 -25 0 -8 -7 -18 -8 -23 -4 -4 4 -2 -1 6 -12 14 -18 13
-18 -20 -11 -37 8 -84 35 -61 35 11 0 11 3 1 15 -16 19 -29 19 -36 0z m-104
-114 c0 -5 -7 -12 -16 -15 -14 -5 -15 -4 -4 9 14 17 20 19 20 6z m60 -51 c12
-8 11 -10 -7 -10 -12 0 -28 -3 -37 -6 -9 -3 -16 -1 -16 6 0 6 4 9 9 5 5 -3 12
-1 16 5 8 12 16 12 35 0z m35 -20 c-27 -12 -43 -12 -25 0 8 5 22 9 30 9 10 0
8 -3 -5 -9z"/>
<path d="M2313 4023 c-16 -6 -17 -33 -3 -33 11 0 26 28 19 34 -2 2 -10 1 -16
-1z"/>
<path d="M3767 4009 c3 -12 11 -18 19 -15 7 3 19 -3 26 -12 8 -9 25 -27 38
-39 l25 -22 3 38 c3 47 -11 60 -70 65 -42 4 -45 3 -41 -15z"/>
<path d="M1140 4000 c-21 -21 -29 -90 -10 -90 6 0 10 -4 10 -10 0 -5 -6 -7
-13 -4 -16 6 -37 -36 -37 -71 0 -35 12 -31 57 18 21 23 62 62 89 87 28 25 50
48 50 51 -1 3 5 13 13 22 17 22 13 21 -50 -3 -41 -16 -54 -18 -60 -8 -4 6 -5
16 -3 20 11 17 -27 7 -46 -12z"/>
<path d="M1440 3986 c0 -8 -6 -17 -12 -19 -8 -3 -6 -6 5 -6 9 -1 17 4 17 9 0
6 6 10 14 10 8 0 18 5 21 10 4 6 -5 10 -19 10 -16 0 -26 -6 -26 -14z"/>
<path d="M1555 3974 c-16 -14 -21 -21 -10 -15 30 14 61 40 50 41 -5 0 -23 -12
-40 -26z"/>
<path d="M1815 3960 c3 -5 8 -10 11 -10 2 0 4 5 4 10 0 6 -5 10 -11 10 -5 0
-7 -4 -4 -10z"/>
<path d="M3574 3941 c9 -10 31 -21 47 -25 17 -3 38 -14 47 -25 16 -17 200
-101 223 -101 6 0 18 7 26 16 15 14 14 19 -1 51 -11 23 -22 33 -31 29 -8 -3
-16 2 -19 12 -5 13 -19 17 -61 18 -31 1 -77 11 -105 23 -27 11 -70 21 -96 21
-46 0 -47 -1 -30 -19z m288 -65 c3 -14 1 -31 -3 -38 -6 -8 -9 1 -9 25 0 42 6
48 12 13z"/>
<path d="M1300 3920 c0 -5 5 -10 11 -10 5 0 7 5 4 10 -3 6 -8 10 -11 10 -2 0
-4 -4 -4 -10z"/>
<path d="M1250 3864 c0 -27 4 -43 10 -39 6 3 10 24 10 46 0 21 -4 39 -10 39
-5 0 -10 -21 -10 -46z"/>
<path d="M4290 3890 c-37 -37 -28 -62 70 -179 78 -94 120 -122 80 -54 -30 52
-60 132 -54 148 3 7 -3 19 -14 26 -10 8 -27 29 -36 47 -19 38 -20 38 -46 12z"/>
<path d="M2127 3873 c-12 -12 -7 -22 8 -17 8 4 15 10 15 15 0 11 -14 12 -23 2z"/>
<path d="M1177 3823 c-4 -3 -7 -11 -7 -17 0 -6 5 -5 12 2 6 6 9 14 7 17 -3 3
-9 2 -12 -2z"/>
<path d="M3548 3638 c-41 -11 -47 -22 -22 -36 12 -6 13 -11 5 -16 -6 -4 -18 0
-27 8 -8 9 -26 16 -39 16 -12 0 -36 7 -51 15 -32 16 -64 20 -64 7 0 -5 12 -13
28 -20 25 -11 26 -11 2 -7 -96 19 -97 19 -104 -9 -3 -14 -11 -26 -16 -26 -6 0
-10 -13 -10 -30 0 -35 23 -53 90 -70 25 -6 62 -16 82 -21 22 -6 45 -21 58 -39
13 -18 26 -27 35 -23 8 3 15 1 15 -5 0 -10 49 -20 135 -27 28 -3 64 -6 80 -7
23 -2 32 2 40 20 9 21 22 27 55 24 8 -1 26 1 38 4 18 4 21 8 13 18 -7 9 -7 16
0 23 11 11 -7 24 -68 52 -13 6 -23 15 -23 20 0 5 -9 11 -21 14 -12 3 -18 10
-15 16 4 7 -6 10 -27 9 -19 -1 -38 1 -43 5 -5 3 -10 -15 -11 -39 -1 -35 2 -44
18 -49 19 -6 57 -65 42 -65 -14 1 -60 45 -67 65 -4 11 -10 31 -12 45 -3 14
-13 31 -22 38 -9 7 -16 18 -14 23 1 5 -1 8 -5 8 -5 -1 -19 -1 -33 0 -44 2 0
31 58 38 29 3 60 12 69 20 10 8 13 12 6 8 -15 -7 -93 -9 -119 -2 -10 2 -36 0
-56 -5z m-101 -134 c-3 -3 -12 -4 -19 -1 -8 3 -5 6 6 6 11 1 17 -2 13 -5z m48
-34 c3 -5 1 -10 -4 -10 -6 0 -11 5 -11 10 0 6 2 10 4 10 3 0 8 -4 11 -10z"/>
<path d="M4460 3578 c0 -7 11 -37 25 -66 35 -75 85 -114 99 -77 12 33 -7 71
-57 110 -62 48 -67 51 -67 33z"/>
<path d="M2373 3493 c-20 -3 -33 -10 -33 -19 0 -8 5 -14 10 -14 6 0 10 -9 10
-20 0 -11 -5 -19 -11 -17 -6 1 -12 -13 -14 -31 -3 -37 24 -78 62 -93 18 -7 23
-14 18 -28 -4 -13 0 -20 15 -24 23 -6 27 -35 5 -43 -8 -4 -22 -1 -30 6 -8 7
-24 10 -34 7 -11 -3 -22 1 -25 8 -3 8 2 15 11 17 12 2 11 6 -6 22 -19 17 -21
17 -21 3 0 -10 -4 -17 -10 -17 -5 0 -10 -7 -10 -15 0 -8 6 -15 13 -15 8 0 22
-9 32 -20 10 -11 26 -20 37 -20 11 0 18 -7 18 -20 0 -16 7 -20 33 -20 22 0 43
-10 67 -33 22 -20 48 -33 70 -35 19 -2 54 -16 79 -30 42 -25 44 -25 58 -7 7
11 11 25 9 32 -7 17 20 17 31 1 4 -7 9 -22 10 -32 7 -46 25 -32 26 20 1 20 3
31 5 25 3 -8 8 -6 17 6 16 22 8 45 -14 39 -12 -4 -22 8 -40 45 -13 27 -21 52
-18 56 4 3 -1 19 -9 35 -8 15 -14 34 -13 41 4 32 -2 47 -21 47 -21 0 -50 45
-50 78 0 20 -18 32 -47 32 -11 0 -10 -4 6 -17 14 -13 18 -22 12 -32 -8 -12
-15 -9 -39 15 -16 16 -40 38 -52 49 l-24 20 22 -31 c12 -17 37 -43 57 -58 19
-15 35 -32 35 -37 0 -5 9 -28 19 -49 28 -58 13 -49 -39 22 -25 34 -54 72 -65
84 -11 12 -27 32 -35 43 -9 13 -24 20 -40 20 -14 -1 -32 0 -40 3 -8 3 -30 3
-47 1z m365 -324 c-3 -8 -7 -3 -11 10 -4 17 -3 21 5 13 5 -5 8 -16 6 -23z"/>
<path d="M702 3412 c-9 -20 -27 -51 -38 -67 -34 -48 -124 -238 -124 -262 0
-12 -4 -25 -10 -28 -5 -3 -10 -21 -10 -38 0 -18 -9 -52 -20 -76 -11 -24 -20
-53 -20 -65 0 -12 -6 -31 -14 -42 -32 -45 -36 -181 -6 -185 27 -5 35 -3 36 6
3 39 55 198 70 216 21 24 55 132 50 155 -4 14 4 36 21 60 14 22 42 77 61 124
18 47 38 90 43 96 5 6 5 14 1 18 -4 4 0 13 8 19 9 7 26 29 39 50 20 33 21 38
6 43 -10 4 -21 1 -26 -7 -8 -12 -11 -11 -20 4 -15 26 -28 21 -47 -21z m21 -17
c-3 -9 -8 -14 -10 -11 -3 3 -2 9 2 15 9 16 15 13 8 -4z m-25 -114 c-3 -26 -13
-59 -22 -72 l-18 -24 7 35 c21 110 41 147 33 61z"/>
<path d="M3927 3429 c7 -7 15 -10 18 -7 3 3 -2 9 -12 12 -14 6 -15 5 -6 -5z"/>
<path d="M1065 3354 c-18 -19 -20 -24 -45 -194 -11 -74 -25 -159 -30 -189 -13
-71 2 -105 48 -109 25 -3 37 3 56 25 22 25 23 29 10 40 -21 16 -14 58 9 58 11
0 24 13 32 31 7 18 18 35 25 39 9 6 9 9 -1 15 -10 7 -9 20 4 67 15 52 15 63 2
103 -29 86 -27 83 -36 68 -7 -10 -9 -9 -9 5 0 9 5 17 11 17 19 0 0 18 -31 28
-23 9 -33 8 -45 -4z m45 -63 c0 -17 -18 -21 -24 -6 -3 9 0 15 9 15 8 0 15 -4
15 -9z m-50 -311 c0 -5 -4 -10 -10 -10 -5 0 -10 5 -10 10 0 6 5 10 10 10 6 0
10 -4 10 -10z"/>
<path d="M3027 3283 c-6 -32 -3 -38 12 -28 13 8 15 55 2 55 -5 0 -11 -12 -14
-27z"/>
<path d="M1934 3272 c4 -7 2 -19 -5 -28 -10 -12 -9 -17 5 -27 15 -11 13 -13
-18 -15 -19 -1 -37 2 -41 8 -11 18 -25 10 -25 -15 0 -81 57 -125 165 -130 42
-1 74 -9 97 -22 49 -30 82 -39 75 -20 -3 8 0 20 6 26 9 10 6 17 -15 33 -16 11
-28 26 -28 33 0 7 -7 15 -15 19 -8 3 -14 9 -13 14 5 14 -55 60 -88 68 -16 4
-47 21 -69 38 -21 17 -36 25 -31 18z m140 -107 l31 -14 -43 4 c-23 2 -50 12
-60 21 -16 16 -15 17 12 10 16 -4 43 -13 60 -21z"/>
<path d="M2900 3270 c0 -5 5 -10 10 -10 6 0 10 5 10 10 0 6 -4 10 -10 10 -5 0
-10 -4 -10 -10z"/>
<path d="M3046 3212 c-3 -6 -1 -14 5 -17 15 -10 25 3 12 16 -7 7 -13 7 -17 1z"/>
<path d="M4500 3214 c0 -3 7 -21 16 -42 22 -51 51 -146 65 -210 6 -29 22 -72
36 -95 l25 -42 -7 35 c-4 19 -8 52 -10 72 -2 20 -6 41 -10 47 -3 6 -2 11 4 11
5 0 11 -6 14 -12 6 -18 -1 170 -8 209 -6 32 -6 32 -65 32 -33 0 -60 -3 -60 -5z"/>
<path d="M2777 2883 c-13 -12 -7 -23 13 -23 11 0 20 7 20 15 0 15 -21 21 -33
8z"/>
<path d="M2780 2825 c0 -18 5 -25 19 -25 14 0 17 6 13 25 -2 14 -11 25 -18 25
-8 0 -14 -10 -14 -25z"/>
<path d="M2917 2828 c-6 -20 6 -37 26 -38 12 0 8 37 -7 49 -11 9 -15 7 -19
-11z"/>
<path d="M4340 2826 c0 -9 40 -13 46 -5 3 5 -6 9 -20 9 -14 0 -26 -2 -26 -4z"/>
<path d="M4397 2803 c-15 -14 -6 -33 18 -39 21 -5 24 -10 19 -33 -4 -14 -11
-31 -16 -38 -5 -6 -8 -24 -6 -40 2 -23 9 -29 33 -31 17 -2 36 -8 43 -14 8 -7
12 -7 12 1 0 7 4 10 9 6 15 -8 25 15 12 28 -8 8 -11 8 -11 -1 0 -7 -7 -12 -15
-12 -20 0 -19 19 4 56 19 31 19 31 -5 57 -21 23 -22 26 -6 30 14 4 14 5 -3 6
-11 1 -29 8 -39 16 -21 16 -39 19 -49 8z"/>
<path d="M400 2626 c0 -3 7 -21 16 -40 14 -29 23 -35 56 -38 51 -5 58 8 15 26
-19 8 -38 19 -41 25 -8 12 -46 35 -46 27z"/>
<path d="M1100 2605 c0 -16 60 -105 70 -105 4 0 7 -6 7 -13 0 -7 9 -27 21 -43
24 -31 47 -98 31 -89 -23 15 2 -87 28 -113 7 -7 18 -10 24 -6 7 4 18 -1 25
-10 11 -16 17 -16 49 -6 21 7 55 10 76 7 22 -3 61 1 88 8 36 9 52 10 60 2 6
-6 12 -8 12 -4 2 11 5 21 12 37 3 8 7 24 9 35 2 10 13 22 25 25 20 5 20 7 7
40 -14 35 -24 42 -113 77 -43 16 -103 62 -97 72 3 4 -20 16 -52 25 -31 10 -70
22 -87 28 -16 5 -38 11 -48 12 -9 1 -22 7 -28 13 -6 6 -26 9 -44 6 -19 -3 -35
0 -39 6 -10 16 -36 13 -36 -4z m215 -245 c3 -6 -1 -7 -9 -4 -18 7 -21 14 -7
14 6 0 13 -4 16 -10z"/>
<path d="M4205 2580 c-3 -4 -21 -11 -40 -14 -21 -4 -35 -13 -35 -21 0 -8 4
-15 9 -15 9 0 9 -90 0 -118 -2 -8 5 -19 16 -25 31 -18 44 -40 45 -69 0 -27 31
-55 49 -44 5 3 14 -1 21 -9 35 -42 82 -48 147 -19 17 8 36 14 43 14 6 0 8 5 4
12 -4 7 -3 8 5 4 23 -15 39 12 31 54 -4 22 -3 40 1 40 5 0 9 14 9 30 0 17 5
30 13 30 7 1 5 6 -5 14 -10 7 -18 25 -18 40 0 15 -4 25 -9 21 -9 -5 -9 -71 0
-105 3 -10 -5 -16 -23 -18 -16 -2 -28 1 -28 7 0 14 -33 14 -47 0 -14 -14 -83
45 -83 71 0 10 -8 21 -17 24 -15 6 -15 8 -3 17 12 8 12 12 2 16 -7 2 -19 17
-27 33 -14 27 -50 46 -60 30z m160 -288 c-8 -9 -15 3 -20 39 l-6 34 16 -34 c8
-19 13 -36 10 -39z m55 58 c0 -5 -4 -10 -10 -10 -5 0 -10 5 -10 10 0 6 5 10
10 10 6 0 10 -4 10 -10z m10 -74 c0 -2 -7 -6 -15 -10 -8 -3 -15 -1 -15 4 0 6
7 10 15 10 8 0 15 -2 15 -4z"/>
<path d="M2380 2521 c0 -5 7 -12 16 -15 14 -5 15 -4 4 9 -14 17 -20 19 -20 6z"/>
<path d="M1635 2470 c-13 -26 -13 -30 -1 -30 8 0 17 -13 21 -30 4 -16 13 -30
20 -30 7 0 20 -3 29 -6 10 -4 16 -1 16 9 0 8 11 22 25 31 28 18 33 46 9 46
-10 0 -14 6 -11 14 7 18 -15 27 -34 15 -12 -7 -12 -9 1 -10 10 0 7 -4 -7 -11
-27 -13 -64 9 -41 23 10 7 10 9 1 9 -7 0 -19 -13 -28 -30z"/>
<path d="M2452 2478 c5 -15 28 -23 28 -10 0 5 -7 13 -16 16 -10 4 -14 1 -12
-6z"/>
<path d="M2630 2440 c-8 -5 -12 -11 -9 -14 3 -3 14 1 25 9 21 16 8 20 -16 5z"/>
<path d="M4340 2436 c0 -17 35 -39 51 -34 6 2 -4 14 -20 26 -24 18 -31 19 -31
8z"/>
<path d="M3357 2373 c-10 -9 -9 -23 2 -23 5 0 11 7 15 15 5 15 -5 20 -17 8z"/>
<path d="M3230 2331 c0 -5 11 -11 25 -13 28 -6 34 6 9 16 -22 8 -34 7 -34 -3z"/>
<path d="M3435 2330 c-3 -5 1 -10 9 -10 8 0 18 5 21 10 3 6 -1 10 -9 10 -8 0
-18 -4 -21 -10z"/>
<path d="M3488 2323 c7 -3 16 -2 19 1 4 3 -2 6 -13 5 -11 0 -14 -3 -6 -6z"/>
<path d="M3550 2302 c0 -5 17 -14 38 -20 l37 -11 -25 19 c-26 20 -50 26 -50
12z"/>
<path d="M3355 2270 c-3 -5 1 -10 10 -10 9 0 13 5 10 10 -3 6 -8 10 -10 10 -2
0 -7 -4 -10 -10z"/>
<path d="M3437 2247 c-16 -7 -26 -16 -23 -24 4 -10 -2 -12 -22 -9 -15 3 -34 0
-42 -7 -31 -25 -59 -75 -53 -95 3 -13 -3 -28 -16 -41 -28 -28 -41 -26 -41 4 0
24 -1 24 -18 8 -11 -12 -13 -19 -6 -21 7 -2 14 -12 17 -23 3 -10 13 -19 24
-19 10 -1 27 -15 38 -32 28 -43 83 -62 160 -52 33 3 85 6 116 5 44 -1 61 3 80
19 13 12 19 19 12 16 -6 -3 -18 -3 -27 0 -11 4 -13 11 -6 29 5 12 6 33 3 44
-3 13 3 37 13 56 18 34 18 35 -4 55 -14 14 -29 19 -45 15 -27 -7 -74 26 -87
61 -10 26 -28 28 -73 11z"/>
<path d="M3281 2234 c0 -11 3 -14 6 -6 3 7 2 16 -1 19 -3 4 -6 -2 -5 -13z"/>
<path d="M3737 2211 c-3 -12 -1 -21 3 -21 15 0 23 21 12 32 -6 6 -11 2 -15
-11z"/>
<path d="M2969 2114 l-24 -25 27 10 c15 6 30 6 33 2 6 -11 75 -19 81 -10 6 10
-31 30 -39 22 -4 -3 -17 1 -30 10 -23 15 -26 14 -48 -9z"/>
<path d="M3095 1810 c3 -5 8 -10 11 -10 2 0 4 5 4 10 0 6 -5 10 -11 10 -5 0
-7 -4 -4 -10z"/>
<path d="M2965 1800 c3 -5 11 -10 16 -10 6 0 7 5 4 10 -3 6 -11 10 -16 10 -6
0 -7 -4 -4 -10z"/>
<path d="M3260 1755 c0 -11 8 -16 23 -14 12 1 29 -1 37 -4 28 -10 100 -25 100
-20 0 8 -84 41 -122 47 -31 6 -38 4 -38 -9z"/>
<path d="M3679 1699 c-22 -13 18 -16 42 -3 l24 13 -28 -2 c-15 -1 -33 -4 -38
-8z"/>
<path d="M3625 1690 c-3 -5 1 -10 9 -10 8 0 18 5 21 10 3 6 -1 10 -9 10 -8 0
-18 -4 -21 -10z"/>
<path d="M3560 1680 c-13 -9 -13 -10 0 -9 8 0 24 4 35 9 l20 9 -20 0 c-11 0
-27 -4 -35 -9z"/>
<path d="M3735 1590 c-3 -5 -15 -10 -26 -10 -10 0 -19 -7 -19 -15 0 -18 -5
-18 -30 -5 -14 8 -24 2 -50 -30 -21 -26 -41 -40 -56 -40 -22 0 -23 -2 -12 -22
7 -13 18 -26 23 -30 7 -5 6 -14 -2 -28 -7 -11 -13 -26 -13 -34 0 -7 -7 -19
-15 -26 -19 -16 -16 -60 5 -57 8 1 16 -2 17 -7 5 -24 104 -49 130 -33 7 5 21
4 30 -1 10 -5 44 -12 77 -16 32 -3 66 -11 76 -16 15 -8 19 -4 23 20 5 22 16
33 50 48 25 11 62 20 83 21 82 3 193 16 201 24 4 5 0 14 -10 21 -9 7 -17 20
-17 29 0 23 -51 79 -66 73 -18 -7 -18 -1 2 18 21 22 11 33 -37 41 -22 4 -43
13 -45 20 -4 10 -12 11 -35 3 -22 -8 -39 -6 -70 6 -23 9 -69 19 -103 22 -33 3
-68 12 -77 20 -18 17 -26 17 -34 4z m168 -87 c-7 -2 -19 -2 -25 0 -7 3 -2 5
12 5 14 0 19 -2 13 -5z m187 -43 c0 -5 -2 -10 -4 -10 -3 0 -8 5 -11 10 -3 6
-1 10 4 10 6 0 11 -4 11 -10z m-420 -186 c0 -2 -7 -4 -15 -4 -8 0 -15 4 -15
10 0 5 7 7 15 4 8 -4 15 -8 15 -10z"/>
<path d="M2058 1544 c-3 -2 -22 -5 -42 -6 -29 -1 -36 -5 -36 -21 0 -11 -3 -18
-6 -14 -4 3 -13 -1 -22 -10 -14 -14 -14 -17 3 -29 10 -8 22 -14 26 -14 4 0 6
-8 5 -17 0 -11 5 -17 13 -15 9 2 12 -4 8 -18 -3 -11 -2 -20 3 -20 4 0 13 -20
20 -44 17 -60 40 -80 83 -72 19 4 45 17 58 30 13 12 32 25 42 29 17 6 24 27 9
27 -16 0 -92 64 -92 78 0 20 41 51 68 52 12 0 22 -5 22 -12 0 -9 3 -9 11 -1
18 18 3 46 -20 38 -12 -3 -23 0 -28 8 -4 8 -17 19 -28 24 -21 11 -89 16 -97 7z"/>
<path d="M4437 1380 c-9 -13 -17 -29 -17 -34 0 -5 -11 -23 -24 -40 -13 -17
-26 -41 -30 -53 -4 -11 -18 -29 -32 -38 -29 -18 -24 -36 8 -27 17 4 20 2 15
-11 -4 -11 -1 -17 8 -17 18 0 29 19 29 50 0 14 4 28 10 32 5 3 11 16 13 28 2
11 12 39 24 61 25 50 23 87 -4 49z"/>
<path d="M1054 1314 c-27 -146 48 -305 186 -392 30 -19 65 -46 77 -59 13 -16
27 -24 36 -20 13 5 11 15 -15 62 -16 31 -27 63 -24 72 4 9 -4 29 -17 47 -13
17 -38 57 -55 89 -36 66 -54 87 -75 87 -8 0 -17 13 -21 31 -3 16 -19 41 -36
55 -16 14 -30 32 -30 39 0 31 -20 23 -26 -11z"/>
<path d="M4360 1094 c-48 -69 -33 -85 56 -63 42 11 44 13 44 48 0 76 -53 84
-100 15z"/>
<path d="M2002 804 c-59 -14 -67 -18 -58 -33 14 -22 126 -81 182 -96 119 -32
155 -35 232 -17 61 13 74 20 78 39 4 13 10 23 15 23 5 0 6 7 3 15 -3 8 -29 21
-58 29 -28 8 -61 24 -73 36 -23 21 -52 22 -184 4 -26 -3 -55 -2 -65 3 -12 6
-38 5 -72 -3z"/>
<path d="M3757 644 c-8 -8 1 -24 14 -24 5 0 9 7 9 15 0 15 -12 20 -23 9z"/>
<path d="M3057 423 c-15 -15 -6 -33 17 -33 21 0 56 22 56 36 0 7 -66 5 -73 -3z"/>
<path d="M1679 381 c-32 -33 -36 -49 -14 -58 20 -7 51 21 64 58 14 39 -10 39
-50 0z"/>
<path d="M3170 385 c0 -9 5 -15 11 -13 6 2 11 8 11 13 0 5 -5 11 -11 13 -6 2
-11 -4 -11 -13z"/>
</g>
</svg>
