<?xml version="1.0" standalone="no"?>
<!DOCTYPE svg PUBLIC "-//W3C//DTD SVG 20010904//EN"
 "http://www.w3.org/TR/2001/REC-SVG-20010904/DTD/svg10.dtd">
<svg version="1.0" xmlns="http://www.w3.org/2000/svg"
 width="477.000000pt" height="473.000000pt" viewBox="0 0 477.000000 473.000000"
 preserveAspectRatio="xMidYMid meet">

<g transform="translate(0.000000,473.000000) scale(0.100000,-0.100000)"
fill="#000000" stroke="none">
<path d="M2373 4723 c15 -2 39 -2 55 0 15 2 2 4 -28 4 -30 0 -43 -2 -27 -4z"/>
<path d="M2172 4708 c13 -4 -4 -6 -40 -5 -37 2 -57 0 -50 -5 8 -6 -5 -8 -34
-6 -25 2 -44 -1 -41 -6 4 -5 -13 -6 -38 -2 -33 5 -40 4 -29 -5 12 -8 8 -9 -18
-5 -23 4 -31 2 -26 -5 5 -8 -3 -10 -24 -7 -18 3 -29 0 -25 -5 4 -6 -5 -8 -20
-5 -16 3 -24 1 -20 -5 4 -6 -4 -8 -21 -5 -15 3 -24 3 -21 0 9 -10 -78 -32
-100 -26 -17 4 -18 3 -5 -6 12 -10 11 -11 -8 -7 -12 3 -20 1 -16 -4 5 -8 -18
-13 -53 -12 -7 1 -13 -4 -13 -9 0 -6 -7 -7 -16 -4 -8 3 -13 2 -10 -3 7 -10
-64 -32 -78 -24 -6 3 -8 2 -3 -2 9 -11 -51 -37 -66 -28 -6 4 -7 1 -2 -7 6 -10
4 -12 -11 -6 -10 4 -15 4 -11 0 6 -6 -82 -53 -108 -57 -5 -1 -12 -5 -15 -8
-12 -15 -159 -97 -164 -91 -3 3 -6 1 -6 -5 0 -6 -8 -13 -18 -16 -35 -9 -231
-165 -341 -272 -380 -368 -620 -837 -697 -1361 -25 -163 -25 -495 0 -658 180
-1226 1275 -2111 2509 -2028 510 34 955 209 1358 534 106 86 324 308 374 382
170 250 227 350 299 525 36 86 102 279 112 326 62 286 79 449 71 665 -10 241
-43 429 -113 645 -43 131 -122 315 -136 315 -5 0 -6 5 -3 10 3 6 1 10 -5 10
-6 0 -8 5 -5 10 3 6 1 10 -5 10 -6 0 -9 4 -6 9 3 5 -1 12 -10 15 -9 4 -14 13
-10 22 4 10 2 13 -6 8 -8 -5 -9 -2 -5 10 4 10 3 15 -3 11 -9 -6 -14 8 -11 28
1 5 -4 5 -10 1 -9 -5 -10 -2 -6 10 5 11 3 15 -5 10 -8 -5 -9 -2 -5 9 3 9 1 19
-5 23 -7 5 -8 2 -3 -6 6 -9 4 -11 -4 -6 -7 5 -10 15 -7 23 3 8 2 12 -2 9 -4
-3 -14 4 -21 16 -10 16 -10 19 1 13 7 -4 3 2 -10 12 -13 10 -25 28 -26 38 -2
11 -9 19 -15 17 -7 -1 -11 6 -9 15 2 10 -2 17 -9 15 -7 -1 -14 2 -14 8 -1 5
-2 15 -3 20 0 6 -8 15 -16 20 -8 5 -15 14 -15 19 0 5 -8 18 -17 28 -10 10 -48
54 -87 98 -79 92 -181 193 -181 181 0 -5 -18 11 -41 35 -22 24 -37 37 -34 29
4 -8 -2 -4 -14 10 -11 14 -24 25 -29 25 -5 0 -18 9 -28 20 -11 12 -17 16 -14
10 3 -6 -6 1 -19 15 -13 14 -20 18 -16 10 3 -8 -3 -3 -15 12 -13 16 -27 25
-36 21 -9 -3 -14 0 -12 8 2 8 -4 13 -14 11 -9 -1 -20 3 -24 9 -5 8 -3 9 6 4 8
-5 11 -4 6 3 -4 6 -14 8 -23 5 -11 -4 -14 -3 -9 6 4 6 4 11 -1 10 -22 -4 -34
2 -27 14 4 6 4 9 -1 5 -4 -4 -14 0 -22 10 -8 9 -12 11 -8 5 4 -9 1 -11 -9 -7
-9 3 -13 10 -10 15 3 5 -3 6 -12 2 -13 -5 -15 -3 -9 7 5 9 4 11 -3 6 -7 -4
-12 -2 -12 3 0 6 -3 10 -7 10 -20 -3 -34 2 -28 11 4 6 -1 7 -11 3 -12 -4 -15
-3 -10 5 5 8 1 10 -10 5 -12 -4 -15 -3 -10 5 5 8 1 10 -10 5 -12 -4 -15 -3
-10 5 5 8 1 10 -10 5 -12 -4 -15 -3 -10 5 5 8 1 10 -10 5 -12 -4 -15 -3 -10 5
5 8 2 10 -8 6 -9 -3 -16 -1 -16 6 0 6 -4 8 -10 5 -5 -3 -10 -1 -10 5 0 6 -4 9
-9 6 -13 -8 -42 4 -35 15 3 5 -3 6 -12 2 -12 -5 -15 -3 -9 6 6 10 2 11 -15 6
-15 -5 -20 -4 -16 4 5 7 1 8 -10 4 -12 -5 -15 -3 -9 6 6 10 2 11 -15 6 -14 -5
-20 -3 -16 3 4 6 -3 8 -16 5 -19 -4 -20 -3 -8 7 12 9 11 10 -9 5 -16 -5 -21
-4 -16 4 5 8 -2 10 -22 6 -22 -5 -25 -4 -13 4 12 9 8 10 -15 5 -23 -4 -27 -3
-15 5 12 9 9 10 -14 5 -19 -5 -27 -3 -22 4 4 6 -2 8 -16 4 -16 -4 -19 -2 -13
8 6 10 4 12 -8 7 -25 -9 -82 3 -65 14 8 5 -1 6 -21 2 -21 -4 -32 -2 -28 4 4 5
-7 8 -26 5 -24 -2 -28 -1 -17 7 11 8 4 9 -25 5 -31 -4 -36 -3 -25 5 11 9 4 10
-30 5 -31 -4 -41 -2 -31 4 9 7 -2 9 -35 6 -36 -3 -44 -2 -29 5 14 7 2 8 -40 5
-36 -3 -55 -2 -48 3 7 5 -83 9 -217 8 -127 0 -220 -3 -208 -7z m383 -18 c728
-57 1386 -446 1777 -1050 180 -278 288 -540 347 -845 123 -630 -36 -1303 -429
-1819 -63 -83 -280 -318 -280 -303 0 3 -16 -10 -37 -29 -20 -19 -46 -37 -58
-40 -13 -3 -28 -18 -35 -32 -12 -25 -13 -26 -21 -7 -7 18 -8 18 -8 -5 -1 -19
-4 -21 -10 -11 -6 9 -5 21 2 33 7 10 13 14 15 8 2 -5 8 -10 14 -10 6 0 7 7 4
16 -4 10 0 18 11 21 10 2 31 23 48 46 34 47 70 89 103 120 12 11 22 24 22 29
0 5 11 21 25 36 14 15 28 36 32 47 3 11 15 28 25 37 11 9 17 21 14 26 -3 4 4
16 15 25 10 9 19 28 19 42 0 18 4 23 15 19 10 -4 15 0 15 16 0 13 4 19 11 14
8 -5 8 -1 0 14 -8 15 -8 23 0 27 6 4 8 14 5 22 -3 8 -2 11 3 8 5 -3 12 -1 16
5 3 5 0 10 -7 10 -8 0 -6 5 5 11 9 5 17 21 17 34 0 14 5 25 10 25 6 0 10 11
10 24 0 14 4 27 9 30 5 4 12 29 16 56 4 27 11 53 17 56 6 4 8 -2 4 -17 -6 -20
-5 -21 4 -7 7 11 7 25 -1 44 -7 20 -7 30 0 32 6 2 11 11 11 20 0 8 5 31 12 49
9 25 9 41 1 63 -9 24 -8 39 7 77 14 36 19 43 23 28 3 -12 5 -5 5 15 0 19 11
78 25 130 53 193 61 268 62 520 0 255 -14 359 -70 555 -39 132 -105 296 -117
289 -6 -4 -8 1 -4 12 6 21 -56 138 -68 127 -4 -4 -4 0 -1 9 4 11 0 20 -13 27
-11 6 -23 18 -26 27 -5 12 -3 14 7 8 7 -5 2 1 -12 13 -13 12 -25 32 -26 45 -1
12 -7 23 -14 23 -15 0 -31 26 -24 40 4 5 3 7 -2 3 -4 -4 -25 15 -46 42 -40 50
-48 67 -27 54 7 -4 8 -3 4 5 -4 6 -11 9 -16 6 -12 -7 -61 55 -54 67 4 6 3 8
-3 5 -11 -7 -164 143 -160 157 1 5 -6 10 -15 12 -10 1 -26 10 -35 20 -23 23
-214 165 -230 171 -7 3 -11 9 -8 13 3 4 -3 7 -13 6 -9 0 -16 5 -14 12 1 8 -2
11 -8 7 -6 -4 -25 3 -43 13 -184 113 -446 208 -717 259 -136 25 -544 25 -680
0 -224 -42 -422 -107 -603 -199 -32 -16 -62 -26 -67 -23 -6 4 -13 -1 -16 -9
-6 -16 -113 -82 -126 -78 -5 1 -8 -2 -8 -8 0 -5 -21 -23 -47 -41 -25 -18 -43
-26 -38 -18 4 8 -3 3 -16 -11 -38 -41 -95 -87 -79 -65 7 11 -12 -7 -43 -40
-31 -33 -57 -56 -57 -51 0 6 -13 -3 -30 -19 -16 -15 -27 -33 -23 -38 3 -6 1
-7 -5 -4 -14 10 -169 -175 -254 -303 -176 -266 -293 -594 -329 -922 -16 -147
-6 -435 20 -573 20 -104 65 -275 90 -340 7 -16 10 -39 6 -52 -4 -18 -2 -21 12
-16 10 4 14 2 9 -5 -3 -6 -2 -13 4 -17 5 -3 10 -13 10 -22 0 -11 -5 -9 -20 8
-16 20 -19 21 -20 7 0 -9 4 -19 9 -23 5 -3 7 -21 4 -40 -4 -23 -2 -35 6 -35 6
0 11 -4 11 -10 0 -5 -6 -10 -13 -10 -7 0 -14 -12 -15 -26 -2 -22 0 -25 13 -14
12 10 15 9 15 -7 0 -10 -5 -24 -12 -31 -9 -9 -9 -12 0 -12 7 0 12 -11 12 -25
0 -14 4 -25 9 -25 5 0 11 -9 14 -20 3 -11 1 -18 -4 -14 -16 9 -10 -14 8 -31 9
-10 18 -27 19 -39 3 -26 62 -154 75 -162 5 -3 7 -9 5 -13 -3 -4 6 -20 20 -36
13 -16 27 -40 31 -54 3 -14 13 -35 22 -45 16 -19 16 -19 -11 0 -15 10 -25 25
-23 33 5 11 3 12 -10 1 -14 -11 -16 -10 -14 6 0 3 -10 15 -23 27 -64 60 -181
236 -260 392 -123 241 -188 449 -229 730 -30 210 -24 515 15 716 45 238 122
463 229 668 47 92 195 324 234 366 10 11 43 50 74 85 349 402 838 677 1379
774 182 33 382 42 585 26z m1430 -600 c10 -11 16 -20 13 -20 -3 0 -13 9 -23
20 -10 11 -16 20 -13 20 3 0 13 -9 23 -20z m-2515 -336 c0 -8 -5 -12 -10 -9
-6 4 -8 11 -5 16 9 14 15 11 15 -7z m186 -84 c2 0 3 5 2 11 -2 6 2 13 8 16 14
5 14 -59 0 -68 -5 -4 -6 -15 -1 -25 5 -15 10 -8 23 31 13 37 18 44 20 28 2
-13 10 -23 18 -23 8 0 14 -5 14 -11 0 -5 5 -7 11 -4 7 5 8 -5 3 -30 -5 -31 -4
-36 7 -30 8 5 10 4 6 0 -13 -15 -38 -14 -44 2 -3 8 -1 18 6 22 13 8 5 41 -10
41 -9 0 -13 -30 -10 -59 2 -7 -2 -10 -8 -7 -6 4 -7 -4 -2 -22 7 -22 5 -29 -5
-29 -8 0 -14 10 -14 21 0 12 -4 27 -8 34 -5 7 -9 -8 -9 -37 0 -35 4 -48 13
-44 6 2 15 -1 20 -8 5 -9 2 -10 -9 -6 -10 4 -20 0 -26 -11 -8 -14 -11 -9 -17
26 -8 53 -24 65 -24 18 0 -19 6 -37 13 -40 8 -3 2 -14 -18 -30 -16 -14 -32
-26 -35 -26 -6 0 -30 50 -30 62 0 4 5 8 10 8 6 0 10 -6 10 -14 0 -7 7 -19 15
-26 12 -10 15 -10 15 3 0 16 -67 77 -84 77 -6 -1 -2 -8 9 -18 11 -9 21 -30 23
-47 1 -16 4 -46 6 -65 2 -19 7 -44 11 -54 6 -13 5 -17 -2 -13 -7 5 -9 -1 -6
-15 5 -19 3 -21 -8 -10 -17 16 -44 15 -58 -2 -9 -11 -9 -15 1 -19 9 -3 7 -9
-7 -22 -17 -14 -17 -16 -2 -11 9 3 17 1 17 -4 0 -9 -14 -14 -31 -12 -4 1 -4
-8 -1 -20 3 -13 1 -19 -5 -15 -6 4 -18 -10 -28 -31 -10 -20 -29 -49 -43 -64
-14 -16 -22 -28 -18 -28 4 0 36 30 72 67 35 37 64 64 64 59 0 -5 9 -1 20 9 11
10 18 21 15 25 -4 7 75 46 88 42 4 -1 7 3 7 9 0 5 5 7 10 4 6 -3 10 -3 10 2 0
12 51 33 63 26 6 -3 7 -1 3 5 -4 7 -1 12 9 12 9 0 13 -4 10 -10 -3 -5 -2 -10
3 -10 13 0 10 -53 -3 -62 -6 -5 -3 -8 7 -8 9 0 22 8 28 18 11 16 11 16 6 -1
-3 -10 -6 -23 -6 -28 0 -5 -6 -9 -14 -9 -20 0 -32 -40 -15 -51 10 -6 5 -8 -14
-5 -16 3 -25 1 -22 -5 4 -5 11 -7 16 -4 5 4 9 -1 9 -10 0 -9 -4 -14 -9 -10 -6
3 -9 -3 -8 -14 2 -26 13 -17 37 28 20 40 77 95 116 113 13 6 21 14 19 18 -3 4
1 8 8 7 30 -1 48 4 43 11 -3 5 12 7 32 6 20 -1 31 0 24 3 -10 4 -10 8 -1 19 6
7 9 21 5 29 -3 9 -2 13 4 10 6 -4 7 1 3 11 -5 13 -3 15 7 9 9 -6 11 -4 5 4 -5
9 -10 10 -18 2 -6 -6 -20 -11 -31 -12 -20 0 -20 -1 -2 -8 19 -7 18 -8 -4 -14
-14 -4 -29 -1 -35 5 -7 8 -6 9 3 4 6 -4 12 -3 12 3 0 16 58 40 90 36 17 -2 30
0 30 5 0 4 9 6 20 3 12 -3 20 0 20 6 0 7 4 10 9 7 5 -4 11 -1 13 4 4 14 74 30
85 20 4 -4 21 -11 37 -14 25 -6 28 -5 18 7 -12 14 -7 27 10 27 5 0 7 -4 4 -9
-3 -5 9 -11 27 -15 25 -5 29 -9 17 -16 -12 -8 -10 -10 10 -10 29 0 53 -13 48
-25 -1 -5 11 -12 29 -17 45 -12 56 -33 13 -24 -19 3 -30 3 -27 -1 4 -4 26 -9
49 -12 51 -7 57 -21 19 -43 -20 -11 -31 -26 -33 -45 -4 -40 -19 -35 -33 12
-12 40 -12 40 -20 13 -4 -16 -11 -28 -16 -28 -17 0 -9 -32 14 -51 l22 -19 -25
9 c-14 5 -26 17 -28 30 -2 12 -8 19 -13 16 -15 -10 -10 -20 31 -62 l39 -41 26
45 c14 25 25 48 25 52 0 3 11 19 23 35 23 29 24 29 56 13 25 -12 38 -14 53 -6
16 9 28 5 61 -18 23 -15 45 -32 49 -38 21 -28 4 24 -19 61 -24 38 -31 43 -58
39 -16 -1 -36 1 -42 7 -7 6 -19 8 -28 5 -8 -4 -17 -2 -20 3 -3 4 8 11 25 15
16 4 33 11 37 17 4 7 1 9 -8 6 -62 -23 -72 -19 -41 18 15 19 24 20 78 15 45
-5 60 -3 57 5 -2 7 0 15 6 19 7 3 11 -3 11 -15 0 -13 5 -20 13 -17 6 2 22 0
35 -4 16 -6 22 -5 22 6 0 9 6 12 17 8 11 -4 14 -3 9 5 -5 8 0 12 13 12 12 0
21 -5 21 -11 0 -5 -5 -7 -12 -3 -7 4 -8 3 -4 -4 5 -9 12 -9 26 0 22 14 71 -3
69 -24 0 -10 -2 -9 -6 1 -5 11 -7 11 -14 0 -7 -11 -9 -10 -9 4 0 10 -5 15 -10
12 -14 -9 7 -35 26 -35 8 0 14 -4 14 -10 0 -5 5 -10 11 -10 6 0 9 7 6 14 -4 9
1 17 11 20 27 7 67 0 65 -12 -2 -6 4 -9 12 -6 10 4 15 0 15 -11 0 -10 -5 -13
-12 -9 -7 4 -8 3 -4 -4 4 -7 22 -12 41 -12 18 0 35 -5 37 -10 2 -6 14 -12 28
-15 14 -3 30 -11 36 -20 6 -8 14 -12 18 -8 4 4 11 1 16 -7 5 -8 12 -12 15 -8
4 3 -4 15 -16 27 -12 11 -19 24 -14 28 4 5 10 2 12 -4 3 -7 9 -13 15 -13 6 0
8 7 4 15 -5 13 15 21 45 17 4 -1 5 9 2 21 -4 18 -3 19 6 7 12 -17 14 -10 5 15
-5 13 -8 14 -15 3 -7 -10 -9 -10 -9 3 0 8 -9 25 -20 37 -25 26 -30 63 -10 69
12 4 13 3 1 -5 -7 -5 -10 -15 -6 -22 6 -9 10 -9 17 1 8 11 9 10 4 -3 -3 -10
-2 -26 1 -35 6 -15 7 -15 15 3 8 18 8 18 5 -2 -3 -12 1 -21 8 -21 7 0 10 8 7
19 -3 13 1 18 17 18 12 0 21 -6 21 -16 0 -8 4 -12 10 -9 5 3 19 1 30 -5 16 -8
24 -8 35 3 12 13 11 16 -8 22 -20 6 -20 8 -4 12 11 3 29 -5 42 -17 22 -20 25
-21 40 -7 9 10 11 18 5 22 -5 3 -10 14 -10 23 1 16 2 16 14 0 9 -12 27 -18 55
-18 22 0 41 -4 41 -10 0 -5 -18 -10 -41 -10 -24 0 -38 -4 -34 -10 3 -5 17 -10
30 -10 13 0 27 -5 31 -12 5 -7 10 -4 15 11 7 18 12 20 28 11 30 -15 71 -13 71
5 0 8 2 15 4 15 2 0 12 3 21 7 14 5 16 2 10 -17 -6 -20 -4 -22 13 -18 15 4 19
2 15 -8 -4 -10 0 -12 11 -8 11 4 16 2 14 -7 -2 -9 5 -13 21 -11 20 2 23 -1 19
-23 -4 -19 -1 -25 13 -25 9 0 19 5 21 12 3 7 11 9 24 3 17 -7 17 -8 2 -12 -24
-6 -23 -23 2 -23 11 0 20 -4 20 -8 0 -4 14 -9 32 -10 18 -2 36 -8 40 -15 6 -8
10 -9 16 -1 4 6 13 4 25 -8 9 -10 14 -18 10 -18 -5 0 3 -6 17 -13 14 -8 24
-19 22 -25 -1 -7 5 -12 13 -12 8 0 16 -8 16 -17 1 -17 2 -17 6 0 2 9 9 17 14
17 5 0 9 -8 9 -17 0 -15 2 -16 10 -3 5 8 10 10 10 4 0 -23 37 -54 56 -47 16 6
17 4 6 -9 -10 -13 -10 -17 5 -23 10 -5 22 -7 27 -6 5 1 5 -4 -1 -11 -8 -9 -7
-17 3 -26 12 -11 14 -9 15 10 0 16 5 11 16 -20 8 -23 19 -40 24 -36 5 3 8 2 7
-3 -1 -4 4 -24 11 -43 8 -19 13 -39 12 -44 -1 -5 6 -25 15 -45 10 -20 19 -49
21 -65 2 -16 10 -51 18 -78 8 -27 12 -55 8 -63 -3 -8 0 -15 5 -15 6 0 10 -8
10 -17 0 -10 3 -52 8 -93 11 -100 7 -367 -7 -460 -28 -194 -119 -461 -217
-639 -284 -519 -784 -885 -1392 -1020 -47 -11 -155 -27 -240 -37 -471 -54
-987 87 -1381 376 -151 110 -290 246 -383 374 -16 22 -33 45 -38 51 -5 5 -20
25 -33 44 -14 19 -25 31 -25 26 0 -5 7 -16 16 -26 13 -15 20 -31 23 -60 2 -17
109 -145 178 -213 332 -330 683 -510 1138 -582 162 -26 459 -24 625 4 236 40
457 111 655 210 82 40 323 192 356 224 8 7 50 43 94 80 116 96 305 299 305
327 0 5 7 12 16 15 18 7 14 0 -34 -64 -204 -269 -481 -489 -805 -639 -314
-146 -636 -210 -991 -198 -316 11 -550 69 -831 208 -231 113 -439 271 -602
458 -75 85 -151 186 -175 232 -8 13 -30 50 -51 82 -20 31 -37 60 -37 63 0 3
-16 39 -35 80 -19 41 -35 78 -35 82 0 5 -9 26 -19 48 -11 22 -22 54 -26 70 -5
28 -5 28 5 4 6 -13 15 -27 20 -30 5 -3 28 -44 50 -90 22 -47 37 -74 34 -60 -3
14 -19 52 -34 85 -36 76 -55 135 -86 260 -55 224 -63 295 -59 520 2 116 8 230
13 255 6 25 13 62 16 82 9 58 24 119 39 163 8 22 12 46 10 53 -3 6 1 12 8 12
7 0 10 3 6 6 -3 4 0 13 8 21 8 8 15 20 15 26 0 7 -4 6 -10 -3 -11 -17 -13 -10
-4 14 3 9 12 16 19 16 7 0 15 9 18 20 3 11 1 18 -4 14 -15 -9 -10 8 6 20 8 6
16 20 18 31 3 24 32 67 39 60 3 -3 8 1 12 10 3 9 2 14 -3 11 -5 -3 -11 1 -14
9 -5 11 -1 12 18 5 23 -9 24 -8 15 16 -15 38 -13 42 23 38 17 -1 26 0 20 3 -7
2 -13 11 -13 19 0 9 5 12 10 9 6 -3 10 -1 10 5 0 6 9 20 20 32 10 12 17 26 13
31 -3 6 -1 7 5 3 7 -4 12 -1 12 8 0 9 7 13 19 11 14 -3 18 1 14 11 -5 14 6 18
40 15 10 -2 17 5 17 14 0 9 -4 13 -10 10 -6 -4 -7 1 -3 11 6 15 8 15 25 -6
l18 -22 0 22 c0 15 5 20 18 18 11 -2 18 2 18 7 -1 6 -5 9 -9 7 -5 -1 -7 3 -5
9 2 7 16 13 30 15 20 2 25 -1 21 -12 -3 -8 1 -14 11 -14 9 0 13 6 10 14 -4 10
6 16 38 21 81 12 98 17 92 26 -3 5 0 9 6 9 6 0 13 -6 16 -14 3 -8 12 -12 21
-9 12 5 12 7 1 14 -10 6 -5 16 20 38 25 24 45 31 92 37 41 4 60 11 60 20 0 8
10 14 23 14 15 0 29 9 36 24 10 18 19 22 44 20 33 -4 50 -14 24 -14 -9 0 -17
-4 -17 -9 0 -16 64 -7 80 11 8 10 29 19 45 20 26 3 30 0 28 -19 -2 -13 2 -23
7 -23 6 0 10 5 10 10 0 6 7 10 15 10 8 0 15 5 15 11 0 5 4 8 9 4 6 -3 15 4 21
16 8 14 18 19 31 16 12 -3 19 0 19 10 0 12 2 12 16 -1 8 -9 17 -16 20 -16z
m89 -10 c3 -5 -1 -10 -9 -10 -9 0 -16 5 -16 10 0 6 4 10 9 10 6 0 13 -4 16
-10z m-530 -62 c5 4 5 1 1 -5 -10 -18 -23 -16 -30 3 -5 13 -4 14 7 6 8 -7 18
-8 22 -4z m523 -67 c11 -7 10 -9 -3 -14 -9 -4 -14 -3 -10 2 3 5 -1 12 -7 14
-7 3 -8 6 -3 6 6 0 16 -3 23 -8z m912 -1 c13 -8 13 -10 -2 -10 -9 0 -20 5 -23
10 -8 13 5 13 25 0z m-1610 -4 c0 -3 -4 -8 -10 -11 -5 -3 -10 -1 -10 4 0 6 5
11 10 11 6 0 10 -2 10 -4z m-40 -20 c0 -3 -4 -8 -10 -11 -5 -3 -10 -1 -10 4 0
6 5 11 10 11 6 0 10 -2 10 -4z m1414 -35 c-4 -3 -9 0 -11 7 -3 6 -10 9 -15 6
-7 -4 -8 -2 -4 5 6 9 11 9 22 0 8 -6 12 -15 8 -18z m-39 -21 c21 -16 35 -30
32 -30 -15 0 -57 24 -57 32 0 5 -4 7 -9 4 -4 -3 -17 1 -27 9 -18 14 -18 14 2
15 12 0 38 -13 59 -30z m670 22 c-1 -2 7 -13 19 -25 12 -12 29 -32 38 -45 9
-14 27 -24 44 -25 29 -2 32 -21 4 -22 -8 0 -14 -6 -12 -12 1 -7 -3 -13 -8 -13
-5 0 -10 3 -10 8 0 4 -16 16 -36 27 -19 10 -46 28 -58 39 -13 12 -31 26 -41
32 -29 16 -12 39 28 39 19 0 34 -1 32 -3z m212 -24 c-3 -7 -5 -2 -5 12 0 14 2
19 5 13 2 -7 2 -19 0 -25z m-1551 1 c4 -8 9 -7 16 2 8 12 9 12 6 0 -5 -18 -48
-22 -48 -4 0 16 16 17 26 2z m764 -22 c0 -23 -2 -22 -19 10 -10 19 -9 22 4 17
8 -4 15 -15 15 -27z m54 11 c-5 -7 -1 -9 9 -5 25 10 29 -8 7 -34 -11 -13 -19
-19 -20 -13 0 5 5 15 12 22 8 8 8 12 1 12 -14 0 -24 -26 -17 -45 10 -25 -7
-40 -23 -20 -18 25 -17 55 3 55 8 0 13 4 9 9 -3 5 -1 12 5 16 6 4 7 11 4 17
-4 7 -2 8 5 4 6 -4 8 -12 5 -18z m761 12 c3 -5 1 -10 -4 -10 -6 0 -11 5 -11
10 0 6 2 10 4 10 3 0 8 -4 11 -10z m152 -26 c-9 -9 -27 6 -27 22 0 13 2 13 16
-1 9 -9 14 -18 11 -21z m200 14 c-3 -8 -6 -5 -6 6 -1 11 2 17 5 13 3 -3 4 -12
1 -19z m-1972 -8 c3 -5 1 -10 -4 -10 -6 0 -11 5 -11 10 0 6 2 10 4 10 3 0 8
-4 11 -10z m786 -22 c11 -21 11 -22 -4 -9 -10 7 -17 17 -17 22 0 15 9 10 21
-13z m699 12 c0 -5 -7 -7 -15 -4 -8 4 -15 8 -15 10 0 2 7 4 15 4 8 0 15 -4 15
-10z m33 -4 c4 -10 1 -13 -9 -9 -15 6 -19 23 -5 23 5 0 11 -7 14 -14z m432 4
c-3 -5 -12 -10 -18 -10 -7 0 -6 4 3 10 19 12 23 12 15 0z m-1931 -22 c-3 -4
-16 -8 -30 -8 -13 0 -24 4 -24 8 0 5 13 8 29 8 17 0 28 -3 25 -8z m741 2 c3
-5 2 -10 -4 -10 -5 0 -13 5 -16 10 -3 6 -2 10 4 10 5 0 13 -4 16 -10z m-833
-50 c9 -17 13 -30 8 -30 -5 0 -15 14 -24 30 -19 39 -6 39 16 0z m51 20 c-13
-5 -23 -15 -23 -21 0 -7 -3 -9 -6 -6 -10 10 16 37 35 36 11 0 9 -3 -6 -9z
m1597 -25 c0 -8 -6 -15 -14 -15 -17 0 -28 14 -19 24 12 12 33 6 33 -9z m-1306
-11 c3 -8 2 -12 -4 -9 -6 3 -10 10 -10 16 0 14 7 11 14 -7z m61 6 c3 -5 3 -10
-2 -11 -4 0 -16 -2 -25 -4 -10 -2 -18 0 -18 4 0 21 34 29 45 11z m-165 -24 c0
-2 -7 -7 -16 -10 -8 -3 -12 -2 -9 4 6 10 25 14 25 6z m66 -11 c-11 -8 -27 -15
-35 -14 -9 0 -2 7 14 14 39 18 45 18 21 0z m-359 -40 c-10 -11 -13 -10 -18 4
-9 23 0 34 16 21 11 -9 12 -15 2 -25z m278 11 c12 -12 12 -15 -2 -21 -10 -3
-14 -3 -10 1 4 4 2 13 -4 21 -15 17 -1 17 16 -1z m2242 -58 c-3 -8 -6 -5 -6 6
-1 11 2 17 5 13 3 -3 4 -12 1 -19z m-3648 -1523 c0 -5 -4 -3 -9 5 -5 8 -9 22
-9 30 0 16 17 -16 18 -35z m3904 -118 c3 -8 -1 -14 -8 -14 -7 0 -11 6 -8 14 3
7 6 13 8 13 2 0 5 -6 8 -13z m-523 -1037 c0 -5 -2 -10 -4 -10 -3 0 -8 5 -11
10 -3 6 -1 10 4 10 6 0 11 -4 11 -10z m-34 -32 c4 -7 3 -8 -5 -4 -6 4 -20 2
-29 -6 -15 -12 -16 -11 -3 5 16 20 27 22 37 5z"/>
<path d="M924 3858 l-19 -23 23 19 c12 11 22 21 22 23 0 8 -8 2 -26 -19z"/>
<path d="M4320 1611 c0 -5 7 -12 16 -15 14 -5 15 -4 4 9 -14 17 -20 19 -20 6z"/>
<path d="M371 1494 c0 -11 3 -14 6 -6 3 7 2 16 -1 19 -3 4 -6 -2 -5 -13z"/>
<path d="M1620 3618 c0 -49 5 -47 14 5 4 23 3 37 -4 37 -5 0 -10 -19 -10 -42z"/>
<path d="M1560 3511 c0 -6 6 -11 14 -11 8 0 17 -6 20 -12 3 -7 5 -4 3 7 -2 20
-37 35 -37 16z"/>
<path d="M1517 3406 c-4 -10 0 -14 13 -13 14 1 16 4 8 14 -13 16 -15 16 -21
-1z"/>
<path d="M2142 3385 c-8 -10 -9 -15 -2 -15 6 0 8 -5 4 -12 -4 -7 -3 -8 4 -4 7
4 12 2 12 -4 0 -24 25 -2 26 23 1 14 -3 24 -8 21 -4 -3 -6 -10 -3 -15 4 -5 -1
-9 -9 -9 -10 0 -13 6 -10 15 8 19 3 19 -14 0z"/>
<path d="M2645 3381 c-3 -5 -2 -12 3 -15 5 -3 9 1 9 9 0 17 -3 19 -12 6z"/>
<path d="M3335 3380 c-3 -5 -1 -10 4 -10 6 0 11 5 11 10 0 6 -2 10 -4 10 -3 0
-8 -4 -11 -10z"/>
<path d="M1734 3289 c-3 -6 -2 -15 3 -20 5 -5 9 -1 9 11 0 23 -2 24 -12 9z"/>
<path d="M3247 3276 c-4 -15 -6 -31 -2 -34 10 -10 16 6 13 35 l-3 28 -8 -29z"/>
<path d="M2246 3283 c-4 -4 -17 -8 -29 -8 -16 0 -22 -6 -23 -24 -1 -21 2 -23
35 -17 20 3 44 6 54 6 9 0 17 5 17 11 0 6 -7 9 -14 6 -11 -4 -13 -1 -9 11 6
15 5 16 -12 2 -17 -14 -18 -13 -12 3 7 18 5 21 -7 10z"/>
<path d="M1969 3239 c-18 -22 -34 -46 -35 -53 -1 -6 -13 -29 -28 -50 -15 -23
-26 -52 -26 -70 1 -17 -2 -44 -6 -60 -5 -21 -4 -27 5 -22 6 4 9 11 6 16 -7 11
15 60 27 60 13 0 10 -12 -9 -32 -16 -17 -16 -20 1 -36 18 -16 18 -16 12 11 -5
21 -4 27 5 21 8 -4 9 -3 5 4 -4 7 -2 12 5 12 7 0 9 3 6 7 -4 3 -2 12 3 19 6 6
9 18 8 25 -2 8 7 14 20 15 12 1 22 -3 22 -8 0 -5 5 -6 10 -3 6 3 10 0 10 -8 0
-7 12 -19 27 -26 18 -8 23 -15 16 -22 -14 -14 -53 6 -53 26 0 20 -16 19 -24
-1 -9 -23 -7 -31 3 -15 6 9 11 10 15 2 4 -6 0 -14 -9 -18 -10 -3 -20 -1 -24 6
-5 7 -14 -4 -24 -30 -14 -36 -19 -40 -32 -29 -8 7 -15 9 -16 4 -3 -31 -11 -69
-16 -74 -3 -3 -4 7 -1 21 3 19 -1 30 -14 38 -12 7 -17 19 -14 27 3 8 2 13 -3
10 -5 -3 -11 -19 -14 -36 -4 -16 -12 -30 -19 -30 -17 0 -41 -38 -33 -50 9 -15
-2 -12 -18 5 -13 13 -16 13 -27 -1 -11 -12 -10 -13 5 -7 14 5 17 3 12 -10 -3
-8 0 -21 8 -27 15 -13 9 -44 -7 -34 -6 4 -8 -2 -3 -17 4 -17 3 -20 -3 -10 -8
11 -12 10 -21 -5 -7 -13 -10 -14 -11 -5 0 8 -3 11 -7 7 -4 -4 3 -16 17 -28 14
-11 20 -17 13 -14 -6 4 -17 0 -25 -7 -7 -8 -18 -12 -25 -10 -6 2 -15 -1 -19
-8 -4 -8 -3 -9 5 -5 9 6 10 0 5 -21 -8 -34 -14 -42 -14 -20 0 39 -59 4 -62
-37 -1 -14 -15 -38 -30 -53 -15 -15 -28 -31 -28 -37 0 -5 -7 -18 -17 -28 -9
-11 -11 -18 -5 -18 7 0 12 5 12 10 0 19 18 10 25 -12 4 -13 7 -26 6 -30 0 -4
7 -5 17 -2 16 5 16 5 0 -9 -10 -8 -18 -23 -18 -33 0 -17 -2 -16 -22 4 -17 16
-20 25 -11 30 7 4 9 13 4 21 -6 9 -10 6 -14 -10 -7 -27 12 -62 49 -85 14 -10
23 -23 20 -31 -5 -11 1 -13 24 -9 37 5 37 0 3 -36 -23 -24 -25 -31 -13 -38 8
-5 19 -5 26 0 14 12 24 3 24 -22 0 -19 -25 -25 -35 -8 -4 6 -10 8 -15 5 -8 -5
-8 -12 0 -50 5 -20 -2 -69 -7 -55 -6 17 -32 40 -46 40 -4 0 -6 -4 -3 -9 3 -5
1 -22 -4 -38 -13 -37 -143 -126 -172 -117 -10 3 -48 7 -84 9 -36 2 -71 8 -77
14 -15 15 -30 14 -21 -1 5 -8 2 -9 -9 -5 -13 5 -17 1 -17 -15 0 -21 -1 -21
-13 -3 -13 17 -14 16 -12 -11 1 -16 6 -42 10 -58 6 -21 5 -27 -3 -22 -7 4 -2
-18 10 -49 11 -30 18 -58 14 -62 -3 -4 -27 3 -53 16 -28 13 -42 17 -35 8 6 -7
30 -20 52 -27 49 -16 64 -33 57 -62 -6 -22 -4 -23 76 -24 48 -1 67 1 47 5
l-35 6 33 14 c18 7 35 18 38 23 3 5 -12 0 -35 -11 -51 -26 -73 -27 -42 -1 13
11 20 20 15 20 -4 0 -15 -7 -25 -16 -21 -19 -43 -9 -36 17 3 10 2 21 -3 24
-16 10 4 58 38 93 20 20 35 40 34 44 -1 4 6 4 15 1 11 -4 14 -2 9 5 -4 7 3 11
21 11 15 0 37 0 48 2 67 7 104 -2 147 -35 l45 -35 29 30 c15 16 24 29 18 29
-5 0 -2 5 6 10 31 20 31 9 -1 -31 -24 -30 -33 -52 -35 -87 -1 -26 1 -38 4 -27
4 11 12 21 17 21 6 1 20 5 33 9 12 3 22 2 22 -2 0 -5 10 -20 22 -33 l22 -23
-35 -30 c-80 -68 -136 -92 -230 -96 -66 -3 -132 13 -170 40 -32 23 -58 24 -84
5 -19 -13 -18 -15 5 -61 33 -62 113 -145 148 -153 7 -1 47 -36 89 -77 43 -41
81 -75 86 -75 4 0 21 -14 38 -31 24 -24 33 -29 42 -19 7 6 8 10 2 9 -15 -5
-55 24 -55 38 0 7 -9 13 -20 13 -11 0 -20 5 -20 11 0 5 5 7 10 4 6 -3 10 -1
10 4 0 6 -6 11 -14 11 -8 0 -16 7 -20 15 -3 10 1 15 11 15 9 0 14 3 10 6 -8 8
34 54 50 54 7 0 12 4 11 9 -2 5 12 23 30 39 24 22 39 50 56 103 14 45 28 73
35 71 7 -1 10 2 7 7 -3 5 0 29 8 55 12 39 12 47 0 57 -17 14 -18 29 -3 29 5 0
8 -4 4 -9 -8 -15 15 -25 28 -12 8 8 7 11 -4 11 -11 0 -12 2 0 9 11 7 11 13 0
32 -11 21 -10 23 3 11 9 -7 22 -10 31 -7 9 4 21 -2 30 -15 14 -21 14 -21 20 0
3 11 1 20 -4 20 -5 0 -9 9 -9 20 0 11 -4 20 -8 20 -5 0 -17 7 -28 15 -10 9 2
5 29 -7 26 -12 47 -26 47 -32 0 -5 9 0 21 13 12 12 27 20 35 17 8 -3 14 1 14
8 0 8 8 13 18 12 10 0 17 6 16 16 -1 10 4 14 12 11 8 -3 14 0 14 6 0 6 9 11
21 11 11 0 17 5 14 10 -4 6 -12 7 -18 4 -7 -4 4 7 23 23 33 29 33 30 10 29
-24 -2 -75 -25 -56 -26 5 0 3 -7 -4 -15 -14 -17 -40 -20 -40 -5 0 6 7 10 15
10 8 0 15 7 15 15 0 8 7 15 16 15 12 0 15 6 10 25 -4 14 -2 25 4 25 5 0 10 -6
10 -14 0 -9 7 -13 18 -11 23 4 36 -4 45 -27 3 -10 10 -18 16 -18 14 0 7 55 -9
75 -14 17 -13 18 4 12 14 -6 17 -4 12 8 -3 9 -2 13 4 10 6 -4 14 4 19 17 6 14
10 17 11 8 1 -10 4 -9 10 5 5 11 9 14 9 8 1 -19 19 -16 24 5 3 9 5 -1 4 -22
-1 -23 3 -41 10 -43 18 -7 29 27 12 37 -7 5 -11 12 -7 15 3 3 13 -1 22 -10 9
-9 16 -12 16 -6 0 6 7 11 16 11 9 0 12 5 8 13 -5 9 -4 9 6 0 19 -18 36 4 56
73 9 32 21 64 26 71 5 7 7 17 3 23 -3 5 -1 10 5 10 7 0 9 12 6 30 -2 16 0 32
5 36 5 3 7 9 4 14 -3 5 -1 11 5 15 5 3 10 14 10 23 0 10 -6 5 -16 -13 -8 -16
-23 -38 -31 -47 -9 -10 -12 -18 -8 -18 5 0 -2 -11 -15 -25 -13 -14 -30 -25
-37 -25 -8 0 -16 -7 -19 -15 -4 -8 -10 -12 -15 -9 -5 3 -9 1 -9 -3 0 -14 -81
-2 -87 13 -4 10 -10 11 -24 4 -15 -9 -18 -8 -12 7 3 10 15 28 26 40 21 23 33
83 17 83 -6 0 -10 6 -10 13 0 7 -9 18 -20 25 -16 10 -20 10 -20 -1 0 -21 -67
-89 -75 -77 -4 6 -4 14 -1 17 15 15 -41 87 -69 88 -5 0 -9 8 -7 17 1 9 -3 20
-9 24 -9 5 -10 2 -6 -11 6 -15 3 -17 -22 -13 -20 3 -27 0 -24 -8 2 -6 14 -10
26 -8 12 2 6 -2 -13 -9 -19 -8 -41 -12 -49 -9 -10 4 -13 -2 -9 -26 2 -18 1
-32 -4 -32 -4 0 -8 5 -8 10 0 6 -8 10 -18 10 -11 0 -24 12 -31 28 -10 25 -10
26 4 8 8 -11 15 -14 15 -7 0 7 5 9 10 6 6 -4 7 -11 4 -17 -4 -6 -3 -8 2 -5 6
3 11 21 12 41 3 34 2 35 -29 26 -23 -7 -28 -6 -21 3 14 18 11 45 -6 52 -20 7
-32 -3 -33 -28 0 -14 -3 -17 -6 -8 -10 25 27 80 63 91 34 11 154 12 154 0 0
-10 63 -30 94 -30 16 0 25 4 21 10 -4 6 -11 8 -16 5 -5 -4 -9 1 -9 10 0 13 -6
15 -30 10 -19 -4 -30 -3 -30 4 0 11 17 15 58 11 28 -2 29 16 2 30 -11 6 -18
15 -15 21 9 13 53 -23 50 -41 -2 -8 7 -23 19 -33 11 -10 16 -16 10 -13 -7 3
-14 -1 -18 -9 -6 -17 20 -34 47 -29 11 1 16 -1 12 -4 -4 -4 -12 -7 -18 -7 -7
-1 -11 -7 -9 -14 1 -7 -2 -10 -8 -6 -14 9 -13 -11 3 -27 6 -7 18 -24 25 -38
36 -68 77 -94 126 -78 46 16 68 39 63 66 -3 14 0 22 7 19 7 -3 12 13 14 43 3
47 -9 72 -24 49 -4 -8 -3 -9 4 -5 7 4 12 0 12 -10 0 -16 -1 -16 -19 0 -18 17
-19 17 -25 -2 -9 -28 -42 -56 -51 -43 -3 6 1 11 9 11 9 0 22 13 31 29 8 16 20
32 27 35 7 3 4 4 -7 1 -25 -6 -47 7 -43 26 2 10 -8 15 -34 17 -21 2 -39 9 -42
18 -5 12 -1 14 16 8 20 -6 21 -5 10 9 -10 12 -10 16 0 19 8 3 -1 12 -19 22
-26 13 -33 23 -33 46 0 20 -6 31 -21 35 -12 4 -18 12 -15 21 3 9 -1 14 -12 14
-9 0 -24 5 -32 10 -11 7 -7 9 15 7 28 -2 30 1 35 38 5 43 21 52 65 41 16 -4
22 -11 19 -21 -4 -8 -2 -15 3 -15 17 0 10 32 -18 84 -16 28 -29 45 -29 38 0
-7 -5 -10 -10 -7 -6 4 -7 12 -4 18 5 8 3 8 -7 0 -10 -10 -10 -16 -1 -25 7 -7
12 -15 12 -19 0 -8 -27 -6 -36 3 -3 4 -13 4 -21 1 -13 -5 -13 -3 -4 16 7 12
16 19 21 16 4 -3 6 3 3 13 -3 11 -24 26 -53 36 -65 23 -78 39 -48 60 13 10 24
12 26 6 5 -15 60 -12 99 6 22 11 32 22 29 31 -4 9 -2 11 6 7 8 -5 9 -2 3 12
-4 10 -8 28 -10 38 -2 24 -25 34 -25 12 0 -9 -4 -16 -9 -16 -13 0 -7 -33 7
-38 30 -10 7 -22 -41 -22 -32 0 -61 -6 -75 -16 -13 -9 -26 -14 -29 -10 -3 3
-14 -5 -23 -17 -23 -28 -31 -20 -23 26 4 27 11 37 24 37 11 0 19 5 19 10 0 6
7 10 15 10 8 0 15 5 15 11 0 5 -4 8 -9 5 -5 -4 -7 3 -4 14 8 29 0 25 -38 -21z
m121 -258 c0 -5 -7 -12 -16 -15 -14 -5 -15 -4 -4 9 14 17 20 19 20 6z m-300
-115 c0 -3 -4 -8 -10 -11 -5 -3 -10 -1 -10 4 0 6 5 11 10 11 6 0 10 -2 10 -4z
m170 -6 c0 -5 -5 -10 -11 -10 -5 0 -7 5 -4 10 3 6 8 10 11 10 2 0 4 -4 4 -10z
m-49 -70 c5 0 8 3 8 8 -3 16 2 23 11 17 10 -6 -39 -79 -65 -97 -5 -4 -6 -8 -1
-8 5 0 3 -7 -4 -15 -20 -24 -43 0 -27 28 7 12 16 25 20 28 5 3 8 9 8 13 -1 15
12 35 20 30 5 -3 10 3 10 13 1 17 2 17 6 1 2 -10 9 -18 14 -18z m347 -181
c-10 -5 -18 -17 -18 -24 0 -15 -12 -20 -23 -9 -7 7 33 43 48 43 6 0 2 -4 -7
-10z m62 -60 c0 -10 -5 -19 -11 -19 -6 0 -8 9 -4 21 5 15 4 19 -4 15 -6 -4
-11 -16 -11 -27 0 -10 -4 -19 -10 -19 -5 0 -10 -9 -10 -20 0 -11 -4 -20 -8
-20 -16 0 -21 12 -11 24 6 6 19 26 30 44 20 34 39 35 39 1z m-653 -49 c1 -16
-1 -17 -12 -7 -11 10 -8 19 10 27 1 0 1 -9 2 -20z m10 -85 c-4 -8 -18 -15 -32
-15 -15 0 -24 4 -21 9 3 5 15 7 26 4 14 -4 20 0 20 13 0 9 3 15 6 11 4 -3 4
-13 1 -22z m108 -32 c-11 -2 -30 -6 -42 -9 -15 -3 -23 -12 -23 -24 0 -11 5
-19 11 -17 7 1 13 -12 14 -30 1 -26 -1 -30 -12 -21 -7 6 -11 13 -9 16 3 2 1
13 -5 24 -6 11 -8 31 -5 44 6 21 12 24 49 23 23 -1 33 -3 22 -6z m-101 -18
c-22 -17 -34 -19 -34 -6 0 5 8 12 18 14 32 9 36 7 16 -8z m350 -14 c3 -5 -3
-11 -14 -14 -22 -6 -37 8 -18 16 20 8 26 8 32 -2z m-234 -25 c1 5 7 -9 15 -31
17 -47 13 -59 -5 -15 -7 16 -16 28 -20 25 -4 -3 -10 7 -13 22 -5 26 -4 26 9 8
8 -10 14 -15 14 -9z m40 3 c-7 -11 -14 -19 -16 -16 -7 7 7 37 17 37 6 0 5 -9
-1 -21z m38 -7 c8 -39 0 -85 -18 -99 -13 -11 -13 -12 3 -13 9 0 17 -7 17 -16
0 -14 -3 -14 -15 -4 -12 10 -15 9 -15 -6 0 -12 -3 -15 -10 -8 -7 7 -5 23 6 49
8 21 16 58 16 83 0 42 8 50 16 14z m-168 -32 c9 -16 8 -18 -5 -14 -8 3 -12 10
-9 15 3 5 0 9 -5 9 -6 0 -11 -5 -11 -12 0 -6 -3 -9 -6 -5 -8 7 4 27 16 27 5 0
14 -9 20 -20z m-5 -48 c-7 -8 -35 7 -35 18 0 6 7 6 20 -2 10 -7 17 -14 15 -16z
m261 -25 c-3 -18 -5 -36 -5 -41 -1 -5 -9 -2 -18 5 -11 10 -14 10 -9 2 4 -8 1
-13 -9 -13 -9 0 -13 5 -10 10 3 6 0 10 -8 10 -19 0 -16 38 3 50 10 6 21 4 34
-8 18 -16 19 -16 14 6 -4 12 -2 20 3 17 5 -4 7 -20 5 -38z m-236 9 c0 -3 -4
-8 -10 -11 -5 -3 -10 -1 -10 4 0 6 5 11 10 11 6 0 10 -2 10 -4z m-42 -64 c-13
-19 -18 -22 -38 -22 -16 0 -12 -30 5 -36 8 -4 12 -11 8 -17 -4 -6 0 -8 11 -4
9 4 14 3 11 -2 -10 -16 15 -23 32 -9 14 11 16 11 10 -4 -4 -12 -2 -15 9 -11 7
3 14 1 14 -3 0 -5 10 -10 23 -10 90 -5 120 -8 109 -12 -16 -5 4 -32 24 -32 8
0 14 -4 14 -10 0 -5 -12 -10 -26 -10 -21 0 -24 -4 -19 -20 7 -22 -10 -27 -22
-7 -4 8 -19 17 -33 21 -97 28 -133 12 -105 -46 14 -30 14 -31 0 -13 -9 11 -18
30 -21 42 -5 18 -12 22 -34 19 -33 -4 -52 -15 -45 -26 10 -16 -13 -20 -25 -4
-10 11 -15 12 -20 3 -10 -16 -30 -2 -23 16 3 8 13 15 23 15 11 0 22 5 25 10 3
6 20 10 36 10 36 0 48 24 25 49 -9 10 -16 25 -16 34 0 9 -3 16 -7 16 -21 -3
-22 3 -8 31 8 16 14 32 13 34 -2 2 0 8 5 12 4 4 7 3 7 -3 0 -19 33 -10 38 11
3 11 7 15 10 8 2 -6 -2 -20 -10 -30z m162 -35 c0 -8 -3 -8 -9 2 -5 8 -11 9
-15 3 -3 -6 -2 -13 3 -16 13 -9 1 -46 -15 -46 -8 0 -14 -5 -14 -10 0 -6 -12 0
-27 14 -15 14 -31 22 -36 19 -6 -4 -8 5 -5 21 4 18 1 29 -8 33 -8 3 -11 9 -9
14 7 11 43 -23 38 -36 -2 -6 10 -12 27 -13 16 -1 30 2 30 8 0 5 -6 9 -12 8 -7
-2 -12 3 -10 10 1 6 -2 12 -8 12 -5 0 -10 7 -10 15 0 13 6 12 40 -5 22 -11 40
-26 40 -33z m100 22 c0 -5 -5 -9 -12 -9 -6 0 -8 -3 -5 -7 8 -8 -12 -33 -26
-33 -6 0 -2 7 9 15 19 14 18 14 -3 15 -24 0 -32 15 -12 22 24 8 49 6 49 -3z
m-374 -57 c-17 -16 -18 -16 -5 5 7 12 15 20 18 17 3 -2 -3 -12 -13 -22z m55
-39 c18 -21 19 -24 3 -10 -12 10 -28 15 -38 11 -16 -6 -22 6 -9 19 11 12 19 8
44 -20z m144 -161 c-3 -3 -6 -3 -7 -1 -2 2 -14 18 -28 34 l-25 30 32 -29 c18
-16 31 -32 28 -34z m-105 38 c0 -5 -2 -10 -4 -10 -3 0 -8 5 -11 10 -3 6 -1 10
4 10 6 0 11 -4 11 -10z m-472 -96 c-4 -3 -12 5 -18 18 -12 22 -12 22 6 6 10
-10 15 -20 12 -24z m424 14 c-7 -7 -12 -8 -12 -2 0 6 3 14 7 17 3 4 9 5 12 2
2 -3 -1 -11 -7 -17z"/>
<path d="M1900 2221 c0 -5 7 -11 15 -15 8 -3 15 -1 15 3 0 5 -7 11 -15 15 -8
3 -15 1 -15 -3z"/>
<path d="M1681 2018 c-1 -23 18 -33 32 -18 9 10 8 12 -5 7 -11 -4 -18 0 -21
11 -4 16 -5 16 -6 0z"/>
<path d="M3215 3241 c-3 -5 -2 -12 3 -15 5 -3 9 1 9 9 0 17 -3 19 -12 6z"/>
<path d="M3280 3239 c0 -5 5 -7 10 -4 6 3 10 8 10 11 0 2 -4 4 -10 4 -5 0 -10
-5 -10 -11z"/>
<path d="M2044 3225 c-4 -8 -10 -12 -15 -9 -5 3 -9 0 -9 -6 0 -12 38 -4 55 12
6 6 3 7 -9 2 -13 -5 -17 -4 -12 4 4 7 5 12 1 12 -3 0 -8 -7 -11 -15z"/>
<path d="M2088 3203 c6 -2 18 -2 25 0 6 3 1 5 -13 5 -14 0 -19 -2 -12 -5z"/>
<path d="M3326 3202 c-6 -9 71 -92 86 -92 5 0 7 -4 4 -9 -3 -4 5 -18 18 -30
20 -19 24 -20 30 -6 3 9 2 14 -3 11 -14 -9 -45 44 -33 56 7 7 12 3 17 -11 3
-12 11 -21 18 -21 8 0 8 3 -1 12 -16 16 -15 31 1 22 8 -5 7 -2 -2 9 -12 16
-16 16 -31 2 -19 -17 -40 -20 -40 -5 0 16 -58 72 -64 62z"/>
<path d="M1690 3144 c0 -8 5 -12 10 -9 6 4 8 11 5 16 -9 14 -15 11 -15 -7z"/>
<path d="M2690 3145 c-7 -8 -17 -12 -23 -8 -6 3 -7 1 -3 -5 6 -11 -19 -18 -46
-13 -5 0 -8 -4 -8 -10 0 -6 9 -8 20 -4 15 5 20 2 20 -12 0 -10 3 -28 6 -40 4
-14 2 -23 -5 -23 -7 0 -10 4 -6 10 3 5 -7 5 -25 -1 -17 -6 -42 -8 -57 -4 -24
6 -25 5 -12 -11 12 -15 12 -17 -1 -12 -9 3 -15 17 -15 33 0 25 -4 28 -40 32
-22 2 -50 10 -62 18 -18 12 -23 12 -34 -1 -7 -8 -18 -13 -25 -10 -21 8 -26
-11 -8 -28 22 -22 37 -20 31 4 -3 11 -1 22 4 25 10 7 33 -36 47 -86 9 -34 8
-38 -13 -47 -34 -16 -42 -52 -16 -73 16 -13 20 -24 15 -48 -6 -27 -10 -30 -28
-25 -11 4 -30 13 -41 20 -11 8 -22 14 -25 14 -3 0 -5 -27 -3 -61 2 -58 2 -60
-20 -53 -12 4 -30 8 -41 9 -10 1 -25 10 -32 20 -8 10 -14 14 -14 9 0 -6 6 -16
13 -23 10 -10 8 -11 -6 -5 -10 3 -24 19 -33 35 -18 35 -21 36 -20 7 1 -27 51
-73 67 -62 8 5 9 3 4 -6 -6 -10 -1 -12 23 -7 25 5 34 2 42 -13 16 -31 30 -24
30 14 0 19 5 38 10 41 7 4 9 -3 6 -19 -3 -16 0 -26 7 -26 8 0 8 -3 -1 -12 -20
-20 -14 -25 32 -25 38 0 43 2 38 19 -4 17 -6 17 -28 3 -38 -25 -37 -17 2 17
24 22 39 29 42 20 2 -6 9 -12 14 -12 6 0 9 3 5 6 -3 3 -1 17 4 31 6 18 6 30
-2 39 -9 11 -9 13 2 9 11 -4 15 6 17 40 1 31 -2 45 -10 45 -9 0 -8 4 2 10 13
9 13 12 -2 24 -23 17 -23 28 -1 24 10 -2 18 3 18 10 0 29 30 33 80 11 60 -26
123 -44 147 -41 33 4 47 40 29 78 -6 15 -7 24 -1 24 16 0 12 15 -12 40 -17 18
-18 22 -5 17 9 -3 17 -2 17 4 0 6 6 7 13 3 7 -4 9 -3 4 2 -5 5 -13 10 -18 10
-5 1 -13 2 -18 3 -5 0 -11 15 -14 31 -7 33 -18 38 -37 15z m8 -48 c8 -9 4 -15
-14 -24 -22 -10 -24 -9 -24 13 0 26 21 32 38 11z m-216 -132 c-8 -15 -10 -13
-14 14 -4 28 -3 30 10 18 10 -11 11 -20 4 -32z m8 -129 c0 -2 -12 -12 -27 -22
-20 -13 -25 -13 -16 -2 7 8 10 18 6 21 -3 4 3 7 15 7 12 0 22 -2 22 -4z"/>
<path d="M3323 3147 c0 -8 6 -14 14 -14 9 0 10 4 2 14 -6 7 -12 13 -14 13 -1
0 -2 -6 -2 -13z"/>
<path d="M2017 3143 c-11 -10 -8 -20 6 -26 8 -3 13 3 13 14 0 19 -8 24 -19 12z"/>
<path d="M2116 3134 c-5 -14 -4 -15 9 -4 17 14 19 20 6 20 -5 0 -12 -7 -15
-16z"/>
<path d="M1715 3080 c3 -5 8 -10 11 -10 2 0 4 5 4 10 0 6 -5 10 -11 10 -5 0
-7 -4 -4 -10z"/>
<path d="M2760 3060 c0 -5 5 -10 10 -10 6 0 10 5 10 10 0 6 -4 10 -10 10 -5 0
-10 -4 -10 -10z"/>
<path d="M1695 3041 c-7 -24 1 -41 19 -41 15 0 15 52 -1 57 -6 2 -14 -5 -18
-16z m25 -1 c0 -5 -5 -10 -11 -10 -5 0 -7 5 -4 10 3 6 8 10 11 10 2 0 4 -4 4
-10z"/>
<path d="M1310 3021 c0 -5 5 -13 10 -16 6 -3 10 -2 10 4 0 5 -4 13 -10 16 -5
3 -10 2 -10 -4z"/>
<path d="M3061 2992 c-8 -16 -6 -18 17 -19 15 0 35 -4 45 -8 11 -5 17 -3 17 7
0 37 -62 53 -79 20z"/>
<path d="M2238 2923 c7 -3 16 -2 19 1 4 3 -2 6 -13 5 -11 0 -14 -3 -6 -6z"/>
<path d="M1206 2801 c-4 -7 -5 -15 -2 -18 9 -9 19 4 14 18 -4 11 -6 11 -12 0z"/>
<path d="M1223 2775 c-15 -17 -3 -27 17 -15 10 6 11 12 5 19 -6 6 -14 4 -22
-4z"/>
<path d="M1664 2763 c3 -6 0 -14 -6 -16 -7 -3 -1 -6 14 -6 15 -1 30 4 34 11 5
7 2 9 -8 5 -9 -3 -21 0 -28 6 -10 9 -11 9 -6 0z"/>
<path d="M1616 2711 c-11 -12 -14 -21 -7 -26 6 -3 11 1 11 9 0 8 8 20 18 25 9
6 12 11 6 11 -6 0 -19 -9 -28 -19z"/>
<path d="M2898 2683 c7 -3 16 -2 19 1 4 3 -2 6 -13 5 -11 0 -14 -3 -6 -6z"/>
<path d="M1455 2670 c-3 -5 -1 -10 4 -10 6 0 11 5 11 10 0 6 -2 10 -4 10 -3 0
-8 -4 -11 -10z"/>
<path d="M1485 2670 c3 -5 8 -10 11 -10 2 0 4 5 4 10 0 6 -5 10 -11 10 -5 0
-7 -4 -4 -10z"/>
<path d="M2860 2670 c0 -5 5 -10 10 -10 6 0 10 5 10 10 0 6 -4 10 -10 10 -5 0
-10 -4 -10 -10z"/>
<path d="M1143 2640 c5 -43 13 -45 15 -5 2 19 -2 35 -8 35 -5 0 -8 -14 -7 -30z"/>
<path d="M1510 2630 c-9 -16 -8 -18 5 -14 8 4 15 12 15 20 0 20 -7 17 -20 -6z"/>
<path d="M2288 2643 c7 -3 16 -2 19 1 4 3 -2 6 -13 5 -11 0 -14 -3 -6 -6z"/>
<path d="M1560 2631 c0 -10 19 -25 25 -20 1 2 -3 10 -11 17 -8 7 -14 8 -14 3z"/>
<path d="M2973 2633 c-7 -2 -13 -10 -13 -17 0 -14 47 -20 55 -6 4 6 12 7 18 3
7 -4 6 0 -2 10 -13 17 -34 20 -58 10z"/>
<path d="M2368 2623 c-13 -3 -18 -14 -18 -36 1 -30 1 -31 15 -13 8 11 15 25
15 32 0 7 6 15 13 17 15 7 -2 6 -25 0z"/>
<path d="M1825 2611 c-6 -11 13 -26 22 -17 4 3 0 6 -8 6 -11 0 -11 2 1 10 9 6
10 10 3 10 -6 0 -14 -4 -18 -9z"/>
<path d="M1535 2601 c-6 -11 13 -26 22 -17 4 3 1 6 -6 6 -7 0 -9 5 -6 10 3 6
4 10 1 10 -3 0 -7 -4 -11 -9z"/>
<path d="M2391 2574 c0 -11 3 -14 6 -6 3 7 2 16 -1 19 -3 4 -6 -2 -5 -13z"/>
<path d="M2376 2518 c-3 -13 -2 -26 3 -31 4 -4 8 6 9 23 1 36 -3 39 -12 8z"/>
<path d="M2914 2432 c3 -6 1 -12 -6 -14 -9 -3 -9 -6 0 -12 7 -4 12 -2 12 4 0
6 5 8 11 4 7 -4 10 -1 7 6 -2 8 -10 16 -18 18 -7 3 -10 0 -6 -6z"/>
<path d="M1475 2380 c3 -5 8 -10 11 -10 2 0 4 5 4 10 0 6 -5 10 -11 10 -5 0
-7 -4 -4 -10z"/>
<path d="M1497 2350 c-3 -11 -1 -20 4 -20 5 0 9 9 9 20 0 11 -2 20 -4 20 -2 0
-6 -9 -9 -20z"/>
<path d="M1535 2344 c11 -8 27 -21 36 -28 9 -8 22 -10 29 -6 9 6 -1 15 -30 29
-51 24 -63 26 -35 5z"/>
<path d="M1555 2299 c-4 -6 -5 -12 -2 -15 2 -3 7 2 10 11 7 17 1 20 -8 4z"/>
<path d="M2761 2184 c0 -11 3 -14 6 -6 3 7 2 16 -1 19 -3 4 -6 -2 -5 -13z"/>
<path d="M2955 2139 c-4 -6 -1 -15 6 -20 20 -13 54 -6 54 11 0 18 -50 26 -60
9z"/>
<path d="M1375 2121 c4 -13 -2 -23 -19 -35 -40 -26 -23 -48 33 -44 42 3 46 5
49 31 3 22 -1 30 -17 34 -12 3 -21 12 -21 19 0 8 -7 14 -16 14 -10 0 -13 -6
-9 -19z"/>
<path d="M2130 2100 c0 -6 7 -10 15 -10 8 0 15 2 15 4 0 2 -7 6 -15 10 -8 3
-15 1 -15 -4z"/>
<path d="M2176 2061 c-3 -5 1 -11 9 -15 9 -3 15 0 15 9 0 16 -16 20 -24 6z"/>
<path d="M3146 2031 c-3 -4 1 -17 9 -27 8 -10 15 -14 15 -8 0 7 7 11 16 10 9
0 19 5 22 13 3 8 0 11 -7 7 -6 -4 -11 -2 -11 3 0 13 -37 15 -44 2z"/>
<path d="M2026 1983 c-6 -14 -5 -15 5 -6 7 7 10 15 7 18 -3 3 -9 -2 -12 -12z"/>
<path d="M1990 1923 c0 -6 8 -17 18 -24 16 -13 16 -13 2 6 -8 11 -16 22 -17
24 -2 2 -3 0 -3 -6z"/>
<path d="M1280 1889 c-34 -21 -50 -37 -50 -51 0 -3 13 6 28 20 15 15 37 32 47
39 11 6 18 12 15 12 -3 1 -21 -9 -40 -20z"/>
<path d="M1304 1869 c-4 -7 -3 -9 4 -5 6 3 13 -5 17 -21 20 -88 151 -151 208
-101 18 15 18 17 3 10 -13 -7 -32 -6 -58 4 -21 7 -42 13 -46 13 -16 1 -102 72
-102 86 0 19 -17 28 -26 14z"/>
<path d="M1766 1812 c-3 -5 1 -9 9 -9 8 0 12 4 9 9 -3 4 -7 8 -9 8 -2 0 -6 -4
-9 -8z"/>
<path d="M1248 1803 c7 -3 16 -2 19 1 4 3 -2 6 -13 5 -11 0 -14 -3 -6 -6z"/>
<path d="M2050 1780 c-11 -7 -7 -10 18 -10 20 0 31 4 27 10 -8 13 -26 13 -45
0z"/>
<path d="M1845 1760 c-3 -5 -1 -10 4 -10 6 0 11 5 11 10 0 6 -2 10 -4 10 -3 0
-8 -4 -11 -10z"/>
<path d="M2640 1625 c-10 -13 -9 -15 9 -15 12 0 21 6 21 15 0 8 -4 15 -9 15
-5 0 -14 -7 -21 -15z"/>
<path d="M3440 1535 c0 -8 2 -15 4 -15 2 0 6 7 10 15 3 8 1 15 -4 15 -6 0 -10
-7 -10 -15z"/>
<path d="M3301 1394 c-62 -63 -116 -113 -118 -110 -5 4 -30 -14 -65 -47 -10
-10 -23 -15 -28 -12 -6 4 -10 3 -10 -2 0 -8 -68 -58 -79 -58 -17 0 -71 -29
-71 -37 0 -5 -4 -6 -10 -3 -5 3 -10 3 -10 -2 0 -4 -17 -15 -38 -24 -20 -9 -59
-26 -87 -39 -27 -12 -72 -24 -100 -27 -27 -3 -54 -9 -60 -13 -5 -5 -36 -11
-67 -15 -32 -4 -58 -11 -58 -15 0 -7 39 -2 165 21 169 31 407 152 560 283 74
63 186 178 180 184 -3 3 3 11 13 18 9 7 13 13 7 13 -5 0 -61 -51 -124 -115z"/>
<path d="M550 1410 c6 -11 13 -20 16 -20 2 0 0 9 -6 20 -6 11 -13 20 -16 20
-2 0 0 -9 6 -20z"/>
<path d="M585 1350 c9 -16 18 -30 21 -30 2 0 -2 14 -11 30 -9 17 -18 30 -21
30 -2 0 2 -13 11 -30z"/>
<path d="M2272 1299 c-34 -13 -23 -31 21 -34 38 -2 48 10 25 33 -14 14 -15 14
-46 1z"/>
<path d="M1718 1178 c5 -5 16 -8 23 -6 8 3 3 7 -10 11 -17 4 -21 3 -13 -5z"/>
<path d="M1776 1151 c-3 -5 1 -11 9 -14 9 -4 12 -1 8 9 -6 16 -10 17 -17 5z"/>
<path d="M1870 1106 c0 -2 7 -7 16 -10 8 -3 12 -2 9 4 -6 10 -25 14 -25 6z"/>
<path d="M2145 1090 c-8 -13 4 -32 16 -25 12 8 12 35 0 35 -6 0 -13 -4 -16
-10z"/>
<path d="M1940 1069 c0 -5 5 -7 10 -4 6 4 16 2 23 -3 7 -6 32 -16 57 -23 25
-7 51 -17 58 -22 7 -5 15 -7 19 -4 3 4 -2 9 -11 13 -9 3 -13 11 -10 16 4 6 -1
8 -14 4 -11 -4 -23 -2 -26 3 -4 6 -14 7 -23 4 -10 -4 -14 -2 -10 4 5 7 0 9
-12 6 -10 -3 -22 0 -25 6 -9 14 -36 14 -36 0z"/>
<path d="M2205 1000 c3 -5 18 -10 32 -10 32 0 28 5 -10 14 -19 4 -26 3 -22 -4z"/>
<path d="M2320 991 c0 -5 23 -9 52 -10 28 0 49 1 46 4 -8 8 -98 14 -98 6z"/>
<path d="M2445 990 c-17 -7 -14 -9 13 -9 20 -1 31 3 27 9 -7 12 -13 12 -40 0z"/>
</g>
</svg>
